<?xml version="1.0" encoding="UTF-8"?><svg xmlns="http://www.w3.org/2000/svg" xmlns:xlink="http://www.w3.org/1999/xlink" width="375" zoomAndPan="magnify" viewBox="0 0 375 374.999991" height="374.999991" preserveAspectRatio="xMidYMid meet" version="1.0"><defs><clipPath id="clip-0"><path d="M 77 48 L 302.304688 48 L 302.304688 330 L 77 330 Z M 77 48 " clip-rule="nonzero"/></clipPath></defs><path fill="rgb(50.19989%, 53.729248%, 59.21936%)" d="M 203.75 325.292969 L 175.589844 325.292969 C 170.402344 325.292969 166.203125 321.09375 166.203125 315.898438 L 166.203125 301.808594 L 213.132812 301.808594 L 213.132812 315.898438 C 213.132812 321.09375 208.9375 325.292969 203.75 325.292969 " fill-opacity="1" fill-rule="nonzero"/><path fill="rgb(69.40918%, 72.549438%, 76.858521%)" d="M 227.214844 297.113281 C 227.214844 299.699219 226.1875 302.046875 224.445312 303.738281 C 222.757812 305.480469 220.414062 306.507812 217.828125 306.507812 L 161.507812 306.507812 C 156.355469 306.507812 152.121094 302.285156 152.121094 297.113281 C 152.121094 294.527344 153.148438 292.179688 154.890625 290.488281 C 156.578125 288.746094 158.925781 287.71875 161.507812 287.71875 L 161.507812 283.023438 L 217.828125 283.023438 L 217.828125 287.71875 C 222.980469 287.71875 227.214844 291.9375 227.214844 297.113281 " fill-opacity="1" fill-rule="nonzero"/><path fill="rgb(97.24884%, 78.039551%, 18.429565%)" d="M 297.613281 160.90625 C 297.613281 97.1875 242.503906 46.363281 177.386719 53.558594 C 127.757812 59.042969 87.808594 99.074219 82.382812 148.742188 C 77.582031 192.847656 99.324219 232.367188 133.644531 253.246094 C 142.074219 258.402344 147.429688 267.371094 147.429688 277.28125 L 147.429688 278.324219 C 147.429688 283.519531 151.628906 287.71875 156.816406 287.71875 L 222.519531 287.71875 C 227.710938 287.71875 231.90625 283.519531 231.90625 278.324219 L 231.90625 277.296875 C 231.90625 267.355469 237.335938 258.363281 245.824219 253.171875 C 276.878906 234.203125 297.613281 199.984375 297.613281 160.90625 " fill-opacity="1" fill-rule="nonzero"/><g clip-path="url(#clip-0)"><path fill="rgb(100%, 100%, 100%)" d="M 217.828125 292.417969 C 220.414062 292.417969 222.519531 294.527344 222.519531 297.113281 C 222.519531 299.699219 220.414062 301.808594 217.828125 301.808594 L 161.507812 301.808594 C 158.925781 301.808594 156.816406 299.699219 156.816406 297.113281 C 156.816406 294.527344 158.925781 292.417969 161.507812 292.417969 Z M 208.441406 315.898438 C 208.441406 318.488281 206.332031 320.597656 203.75 320.597656 L 175.589844 320.597656 C 173.003906 320.597656 170.894531 318.488281 170.894531 315.898438 L 170.894531 311.203125 L 208.441406 311.203125 Z M 264.796875 76.914062 C 240.617188 55.246094 209.394531 45.300781 176.871094 48.898438 C 125.082031 54.621094 83.390625 96.398438 77.726562 148.226562 C 72.886719 192.460938 93.382812 234.238281 131.203125 257.261719 C 138.425781 261.667969 142.734375 269.152344 142.734375 277.28125 L 142.734375 278.324219 C 142.734375 283.335938 145.375 287.699219 149.316406 290.214844 C 148.144531 292.25 147.429688 294.582031 147.429688 297.113281 C 147.429688 304.890625 153.734375 311.203125 161.507812 311.203125 L 161.507812 315.898438 C 161.507812 323.679688 167.816406 329.992188 175.589844 329.992188 L 203.75 329.992188 C 211.519531 329.992188 217.828125 323.679688 217.828125 315.898438 L 217.828125 311.203125 C 225.601562 311.203125 231.90625 304.890625 231.90625 297.113281 C 231.90625 294.582031 231.191406 292.25 230.019531 290.214844 C 233.960938 287.699219 236.601562 283.335938 236.601562 278.324219 L 236.601562 277.296875 C 236.601562 269.171875 240.964844 261.648438 248.261719 257.191406 C 273.082031 242.035156 290.902344 218.277344 298.4375 190.316406 C 299.117188 187.800781 297.632812 185.234375 295.121094 184.554688 C 292.644531 183.875 290.042969 185.363281 289.363281 187.855469 C 282.46875 213.507812 266.136719 235.285156 243.367188 249.171875 C 233.246094 255.355469 227.214844 265.867188 227.214844 277.296875 L 227.214844 278.324219 C 227.214844 280.914062 225.105469 283.023438 222.519531 283.023438 L 156.816406 283.023438 C 154.230469 283.023438 152.121094 280.914062 152.121094 278.324219 L 152.121094 277.28125 C 152.121094 265.851562 146.128906 255.355469 136.082031 249.226562 C 101.414062 228.128906 82.621094 189.820312 87.058594 149.253906 C 92.230469 101.753906 130.453125 63.484375 177.878906 58.234375 C 207.761719 54.933594 236.382812 64.050781 258.527344 83.902344 C 280.378906 103.496094 292.921875 131.566406 292.921875 160.90625 C 292.921875 163.492188 295.027344 165.601562 297.613281 165.601562 C 300.199219 165.601562 302.304688 163.492188 302.304688 160.90625 C 302.304688 128.890625 288.628906 98.285156 264.796875 76.914062 " fill-opacity="1" fill-rule="nonzero"/></g><path fill="rgb(100%, 100%, 100%)" d="M 194.363281 71.664062 C 194.363281 69.078125 192.253906 66.96875 189.667969 66.96875 C 186.113281 66.96875 182.5 67.171875 178.925781 67.554688 C 145.0625 71.296875 115.015625 94.359375 102.347656 126.304688 C 101.394531 128.707031 102.566406 131.441406 104.96875 132.394531 C 105.539062 132.613281 106.125 132.722656 106.710938 132.722656 C 108.5625 132.722656 110.324219 131.605469 111.074219 129.753906 C 122.460938 101.019531 149.5 80.269531 179.953125 76.894531 C 183.179688 76.546875 186.460938 76.363281 189.667969 76.363281 C 192.253906 76.363281 194.363281 74.253906 194.363281 71.664062 " fill-opacity="1" fill-rule="nonzero"/><path fill="rgb(100%, 100%, 100%)" d="M 96.941406 146.082031 C 96.71875 147.476562 96.535156 148.871094 96.390625 150.265625 C 96.097656 152.851562 97.964844 155.164062 100.535156 155.457031 C 100.714844 155.472656 100.882812 155.472656 101.046875 155.472656 C 103.410156 155.472656 105.445312 153.695312 105.722656 151.292969 C 105.851562 150.042969 106.015625 148.777344 106.214844 147.546875 C 106.621094 144.980469 104.859375 142.578125 102.3125 142.171875 C 99.726562 141.769531 97.34375 143.53125 96.941406 146.082031 " fill-opacity="1" fill-rule="nonzero"/><path fill="rgb(100%, 100%, 100%)" d="M 114.578125 189.085938 C 114.578125 191.671875 116.683594 193.78125 119.269531 193.78125 L 128.65625 193.78125 C 131.242188 193.78125 133.347656 191.671875 133.347656 189.085938 C 133.347656 186.5 131.242188 184.390625 128.65625 184.390625 L 128.65625 151.511719 C 128.65625 149.601562 127.519531 147.898438 125.757812 147.179688 C 124.019531 146.449219 121.984375 146.851562 120.644531 148.191406 L 115.953125 152.886719 C 114.117188 154.722656 114.117188 157.695312 115.953125 159.527344 C 116.867188 160.445312 118.058594 160.90625 119.269531 160.90625 L 119.269531 184.390625 C 116.683594 184.390625 114.578125 186.5 114.578125 189.085938 " fill-opacity="1" fill-rule="nonzero"/><path fill="rgb(100%, 100%, 100%)" d="M 170.894531 189.085938 C 170.894531 191.671875 173.003906 193.78125 175.589844 193.78125 L 184.976562 193.78125 C 187.558594 193.78125 189.667969 191.671875 189.667969 189.085938 C 189.667969 186.5 187.558594 184.390625 184.976562 184.390625 L 184.976562 151.511719 C 184.976562 149.601562 183.839844 147.898438 182.078125 147.179688 C 180.320312 146.449219 178.300781 146.851562 176.964844 148.191406 L 172.269531 152.886719 C 170.4375 154.722656 170.4375 157.695312 172.269531 159.527344 C 173.1875 160.445312 174.378906 160.90625 175.589844 160.90625 L 175.589844 184.390625 C 173.003906 184.390625 170.894531 186.5 170.894531 189.085938 " fill-opacity="1" fill-rule="nonzero"/><path fill="rgb(100%, 100%, 100%)" d="M 250.679688 146.816406 C 242.90625 146.816406 236.601562 153.125 236.601562 160.90625 C 236.601562 163.492188 238.710938 165.601562 241.292969 165.601562 C 243.878906 165.601562 245.988281 163.492188 245.988281 160.90625 C 245.988281 158.316406 248.097656 156.207031 250.679688 156.207031 C 253.265625 156.207031 255.375 158.316406 255.375 160.90625 C 255.375 167.785156 252.09375 180.535156 239.808594 184.628906 C 237.628906 185.363281 236.289062 187.5625 236.65625 189.839844 C 237.039062 192.113281 239.003906 193.78125 241.292969 193.78125 L 260.066406 193.78125 C 262.652344 193.78125 264.761719 191.671875 264.761719 189.085938 C 264.761719 186.5 262.652344 184.390625 260.066406 184.390625 L 256.34375 184.390625 C 262.082031 177.65625 264.761719 168.8125 264.761719 160.90625 C 264.761719 153.125 258.453125 146.816406 250.679688 146.816406 " fill-opacity="1" fill-rule="nonzero"/><path fill="rgb(100%, 100%, 100%)" d="M 152.121094 184.390625 C 154.707031 184.390625 156.816406 182.28125 156.816406 179.691406 L 156.816406 174.996094 L 161.507812 174.996094 C 164.09375 174.996094 166.203125 172.886719 166.203125 170.296875 C 166.203125 167.710938 164.09375 165.601562 161.507812 165.601562 L 156.816406 165.601562 L 156.816406 160.90625 C 156.816406 158.316406 154.707031 156.207031 152.121094 156.207031 C 149.539062 156.207031 147.429688 158.316406 147.429688 160.90625 L 147.429688 165.601562 L 142.734375 165.601562 C 140.152344 165.601562 138.042969 167.710938 138.042969 170.296875 C 138.042969 172.886719 140.152344 174.996094 142.734375 174.996094 L 147.429688 174.996094 L 147.429688 179.691406 C 147.429688 182.28125 149.539062 184.390625 152.121094 184.390625 " fill-opacity="1" fill-rule="nonzero"/><path fill="rgb(100%, 100%, 100%)" d="M 222.519531 174.996094 L 203.75 174.996094 C 201.164062 174.996094 199.054688 177.105469 199.054688 179.691406 C 199.054688 182.28125 201.164062 184.390625 203.75 184.390625 L 222.519531 184.390625 C 225.105469 184.390625 227.214844 182.28125 227.214844 179.691406 C 227.214844 177.105469 225.105469 174.996094 222.519531 174.996094 " fill-opacity="1" fill-rule="nonzero"/><path fill="rgb(100%, 100%, 100%)" d="M 222.519531 156.207031 L 203.75 156.207031 C 201.164062 156.207031 199.054688 158.316406 199.054688 160.90625 C 199.054688 163.492188 201.164062 165.601562 203.75 165.601562 L 222.519531 165.601562 C 225.105469 165.601562 227.214844 163.492188 227.214844 160.90625 C 227.214844 158.316406 225.105469 156.207031 222.519531 156.207031 " fill-opacity="1" fill-rule="nonzero"/></svg>